#!OML:ASF E:/inclinewalkrobotboard/Project1/Captureday1/Session1/subject1.ASF
:FULLY-SPECIFIED
:DEGREES
326
root 0 0 0 -2.2321039731370673 -4.589456170526429 -5.396998623873989
lowerback 10.46311407747329 1.7321327608806527 4.245471907244976
upperback 0.5335509672727965 2.8858189983943676 1.6454028721465837
thorax -5.185648622839041 1.345040943645257 -1.0632122125148042
lowerneck -16.81031294776041 -3.1688272061502323 -1.7253258501221849
upperneck 19.13120735476238 -4.07564497556319 0.697091932445649
head 8.831089151437181 -1.9602952439104864 0.005238980678060834
rclavicle -4.2643915823845017E-16 -3.2960757171799547E-16
rhumerus -29.561015482734074 -18.469791951293665 -78.1519248106683
rradius 26.23509708619719
rwrist 4.288699507324829
rhand -17.60391426606145 22.83765983133427
rfingers 7.125020000000029
rthumb 8.642860400356387 -6.9864108911790375
lclavicle -6.372606953478692E-16 -1.8788069321630817E-16
lhumerus -30.349829123745447 -1.4395146482674832 82.28491997301835
lradius 32.20270694832286
lwrist 5.656977763561826
lhand -25.66239458693891 23.859316897974562
lfingers 7.124026879035695
lthumb 0.8618412893156915 53.5052634618663
rfemur -15.510833107412251 2.6915417103048718 24.657034859671615
rtibia 52.85111888875696
rfoot -1.6468839305471548 -4.903702406961578
rtoes 7.8130929814737415
lfemur 0.028457401240386204 -3.5992251749412887 -24.688940538742443
ltibia 18.07187973579801
lfoot -16.051660638903076 2.1418803664239716
ltoes -3.05716807694795
327
root 0 0 0 -2.247546359344814 -4.374514732754884 -5.231488745680631
lowerback 10.467198241479286 1.6459292390738236 4.060434826813448
upperback 0.5222686117058832 2.751295769845345 1.659402207502429
thorax -5.200376662805677 1.2838004178543827 -0.9266575567076974
lowerneck -16.875402495945153 -3.1504575935639374 -1.7136794718303294
upperneck 19.191528200202843 -4.040963073082007 0.6473384332759347
head 8.85812603835048 -1.9464529958235568 -0.010657105945329537
rclavicle -4.103826132093442E-16 -3.3549240611996566E-16
rhumerus -29.789816478204376 -18.68686789745159 -78.19594329169294
rradius 26.023943219244252
rwrist 4.24483609793811
rhand -17.566863006540927 23.003075225482633
rfingers 7.125020000000031
rthumb 8.677227479827154 -6.824090019462972
lclavicle -6.343921906357576E-16 -1.9192738484079448E-16
lhumerus -30.432431674121343 -1.356098496805572 82.29301969985029
lradius 32.032097287114006
lwrist 5.6405341898852
lhand -25.71128471039396 23.828890161653163
lfingers 7.124049366439087
lthumb 0.8140714056187832 53.49104397896861
rfemur -17.84607815284604 2.050042861872651 23.394428370929703
rtibia 56.353431321072705
rfoot 0.06320533369757975 -4.957416084313099
rtoes 8.284022467125702
lfemur 1.2241736485929575 -3.5284020963485525 -25.230320164524958
ltibia 18.264713437494056
lfoot -16.028073299789643 1.623945647702767
ltoes -3.28469186519913
328
root 0 0 0 -2.2676410444392663 -4.0771676173847915 -5.000295728577915
lowerback 10.471813399194586 1.525033446060875 3.802497603505021
upperback 0.5073529676527522 2.5626586383386156 1.6788627288513713
thorax -5.219451843740233 1.197805334240456 -0.7356558919154453
lowerneck -16.96173749653668 -3.1247268366492427 -1.6992417079552933
upperneck 19.27276599054971 -3.993339730766892 0.5808978476716682
head 8.89491907075254 -1.9270754074761471 -0.03158080261507923
rclavicle -3.952460799317773E-16 -3.421493498689107E-16
rhumerus -30.024517508596443 -18.90657759978356 -78.24248030923229
rradius 25.80775093990557
rwrist 4.199341253939599
rhand -17.528175528844315 23.172483678262342
rfingers 7.125020000000034
rthumb 8.712779040476407 -6.657980236712614
lclavicle -6.326998794183427E-16 -1.9498879662134943E-16
lhumerus -30.498677407856665 -1.2906683336498155 82.30004034048491
lradius 31.896286232940263
lwrist 5.628437057047884
lhand -25.749437328426563 23.805781006216403
lfingers 7.124066370829315
lthumb 0.7765626078235339 53.48009371592389
rfemur -19.21950365055592 1.821568948688899 22.601968978645182
rtibia 57.70342981339388
rfoot 0.7229328233880121 -5.126796794842786
rtoes 8.254679318448432
lfemur 2.2125649800234424 -3.4604521513454074 -25.665160319335136
ltibia 18.506273114318258
lfoot -15.974738804555288 1.1639087747938657
ltoes -3.5024398782553656
329
root 0 0 0 -2.292680452792207 -3.7067208246654832 -4.704141944531154
lowerback 10.476038632107286 1.3707499239025598 3.4725458736466086
upperback 0.49039347318000104 2.321721623749803 1.7023147432810304
thorax -5.241135299616126 1.0878773875943666 -0.4925420198141145
lowerneck -17.061948277578537 -3.091353667373177 -1.684545125137138
upperneck 19.36846517432752 -3.9328737426021787 0.5018015748490896
head 8.938736679371406 -1.9022164450727022 -0.055708726511036755
rclavicle -3.8192500839787733E-16 -3.490319292781702E-16
rhumerus -30.22946926663747 -19.09646238941736 -78.2834381445716
rradius 25.619983953918215
rwrist 4.159482770062877
rhand -17.494182611580307 23.319703677372917
rfingers 7.125020000000036
rthumb 8.743908705798901 -6.51372080770015
lclavicle -6.317602540633839E-16 -1.9748922088893602E-16
lhumerus -30.54065506907214 -1.2490181654389438 82.30455344692113
lradius 31.8097472907481
lwrist 5.621406433438077
lhand -25.773180214832678 23.791822534695196
lfingers 7.124081647908062
lthumb 0.7533618102796051 53.473342421869845
rfemur -19.94672384644879 1.8108461483123106 22.15415991580482
rtibia 57.84197402391167
rfoot 0.8098914303339377 -5.320547153871402
rtoes 8.002799503866271
lfemur 2.962924521637513 -3.411850358566264 -25.989352782733903
ltibia 18.675823818530315
lfoot -15.958052043714675 0.8369554093713569
ltoes -3.67888641587607
330
root 0 0 0 -2.3242512396233037 -3.2660355106426042 -4.3307109175264555
lowerback 10.47921319428843 1.179098856200944 3.05728455935102
upperback 0.4735109104648907 2.02161391783447 1.727921331202722
thorax -5.2632727578522625 0.9508757460554125 -0.19094894183594638
lowerneck -17.16688667636924 -3.0491079366711875 -1.6737887158308116
upperneck 19.471909076434102 -3.8579922883734694 0.41454664746762937
head 8.986477047701165 -1.8713164386580416 -0.08053775144470077
rclavicle -3.7176619343805207E-16 -3.551519257107993E-16
rhumerus -30.372125166074127 -19.227363750686386 -78.31173895252866
rradius 25.49076709837127
rwrist 4.1320325953129835
rhand -17.470437509682068 23.421266504928504
rfingers 7.125020000000037
rthumb 8.76553068606448 -6.414281133327041
lclavicle -6.324524215310272E-16 -2.005135872397265E-16
lhumerus -30.55301898666302 -1.2373134782498596 82.30612667437732
lradius 31.784230321961147
lwrist 5.619929545794539
lhand -25.779043993610163 23.788304125072237
lfingers 7.12408818608274
lthumb 0.7478937053941426 53.4711627159497
rfemur -20.391309205705504 1.8531005934946911 21.87370928245393
rtibia 57.65176214412063
rfoot 0.7451842328847782 -5.486375331592146
rtoes 7.747714982863848
lfemur 3.4632030134326595 -3.3751049449611346 -26.19466923406132
ltibia 18.82880347487397
lfoot -15.94646552944641 0.6200839934146236
ltoes -3.8146000335915304
331
root 0 0 0 -2.3652835956354106 -2.7417206365168862 -3.8473280339520244
lowerback 10.480621187480152 0.9371435383837716 2.521062972635046
upperback 0.45815345965875487 1.6409602882813203 1.7544444203087068
thorax -5.284208611075856 0.7769660477334412 0.19068875565765242
lowerneck -17.271069076026 -2.9955038806971164 -1.6716784054423872
upperneck 19.580209436248243 -3.764898611547858 0.3217785428430444
head 9.036527614218166 -1.8329168069886161 -0.10381551125883393
rclavicle -3.6538993073940447E-16 -3.5974579235086905E-16
rhumerus -30.440820566777077 -19.288961521386923 -78.3249645499367
rradius 25.430745436825042
rwrist 4.11944225896123
rhand -17.45885969008683 23.46894467539149
rfingers 7.125020000000038
rthumb 8.775844653734126 -6.3677092715990575
lclavicle -6.352931549251984E-16 -2.040789013352278E-16
lhumerus -30.53109824773958 -1.2614254400667235 82.30459303730787
lradius 31.830314111028308
lwrist 5.624898095845372
lhand -25.763913282596878 23.79691623549608
lfingers 7.1240787867437145
lthumb 0.7629452550107327 53.474240800244935
rfemur -20.718290334421024 1.894897286085162 21.66867864065855
rtibia 57.448465710969096
rfoot 0.6711589194805043 -5.619625511322064
rtoes 7.545860253928159
lfemur 3.741927245169718 -3.344710221051621 -26.294077467925426
ltibia 18.996566593921255
lfoot -15.920522468154315 0.48369989594308294
ltoes -3.9144953605926474
332
root 0 0 0 -2.420126159643939 -2.123044897471255 -3.2020896148140583
lowerback 10.478485119415424 0.626578088555417 1.8074308127104812
upperback 0.4467008794063547 1.148757966315673 1.7786341560472674
thorax -5.300354169555911 0.5517410419608423 0.6847352803929841
lowerneck -17.363713289047407 -2.928085972497467 -1.6871347701628778
upperneck 19.686830542360067 -3.6500943849223244 0.23175862134867398
head 9.084716019414572 -1.7858847505635493 -0.12050098248121888
rclavicle -3.6289718801517385E-16 -3.625745752071295E-16
rhumerus -30.436352156655936 -19.28184059868159 -78.3233553466487
rradius 25.439142647778286
rwrist 4.121557660359592
rhand -17.459280792060078 23.463346073462084
rfingers 7.125020000000037
rthumb 8.774983650991803 -6.373378919376851
lclavicle -6.405947629183096E-16 -2.0776545973697578E-16
lhumerus -30.467504395664232 -1.3300008593712818 82.29963478452882
lradius 31.964106357296373
lwrist 5.638077770843195
lhand -25.72310609795877 23.820691039290455
lfingers 7.124047564175466
lthumb 0.8027264787974921 53.4839436942664
rfemur -20.943232563047328 1.9574539359540513 21.519389372120585
rtibia 57.138926385763064
rfoot 0.5406534315199423 -5.743440206381038
rtoes 7.344238237331214
lfemur 3.8574391559229735 -3.321754170473003 -26.317583703403542
ltibia 19.153796739201315
lfoot -15.895932340540359 0.4177176033627257
ltoes -3.9827411689956307
333
root 0 0 0 -2.4931314991267874 -1.4459607578751328 -2.3419084826845418
lowerback 10.469022432584842 0.2367707747150843 0.8597965643303636
upperback 0.4453737509815481 0.5238165623064568 1.790859507304746
thorax -5.302217289396424 0.26497764357240805 1.3154497249220647
lowerneck -17.412408471456057 -2.848146924327664 -1.7385675313693083
upperneck 19.767703159290754 -3.517180443678606 0.17174772530850557
head 9.116999407271017 -1.7324139095510653 -0.11778068640141415
rclavicle -3.6456490066226417E-16 -3.632059939328608E-16
rhumerus -30.358519403647477 -19.20580438577599 -78.30672670483692
rradius 25.515681686619796
rwrist 4.138482343802549
rhand -17.471746597493684 23.404340152554244
rfingers 7.125020000000037
rthumb 8.7629108796052 -6.431372165378701
lclavicle -6.485311106232815E-16 -2.1070609507243532E-16
lhumerus -30.348382403415986 -1.4589777278724299 82.29063484989199
lradius 32.21545702098147
lwrist 5.662515250095375
lhand -25.647861880502234 23.865160891294078
lfingers 7.123986510895686
lthumb 0.8752003563438944 53.50301096937683
rfemur -21.018828516277132 2.0952159380419895 21.438743343021173
rtibia 56.43765073668778
rfoot 0.2231493725474447 -5.8941332551822985
rtoes 7.037928695034467
lfemur 3.891591382754461 -3.3094376079352443 -26.304963520709034
ltibia 19.2552929143875
lfoot -15.906757969354121 0.4190601872031898
ltoes -4.0300242340676835
